<svg width="228" height="61" viewBox="0 0 228 61" fill="none" xmlns="http://www.w3.org/2000/svg">
<path d="M35.7467 22.1786C43.7353 11.859 63.3735 13.8574 70.6983 23.2111C78.023 32.5647 78.0157 46.8133 70.6982 56.7938" stroke="currentColor" stroke-width="12"/>
<path d="M52.0503 40.135C41.7347 52.4689 22.9499 48.8055 15.7754 37.8205C8.60096 26.8356 9.63735 13.8346 17.7823 4.51712" stroke="currentColor" stroke-width="12"/>
<path d="M103.781 47H90.8776V12.0909H103.764C107.321 12.0909 110.383 12.7898 112.952 14.1875C115.531 15.5739 117.52 17.5739 118.917 20.1875C120.315 22.7898 121.014 25.9034 121.014 29.5284C121.014 33.1648 120.315 36.2898 118.917 38.9034C117.531 41.517 115.548 43.5227 112.969 44.9205C110.389 46.3068 107.327 47 103.781 47ZM99.3151 39.8068H103.457C105.412 39.8068 107.065 39.4773 108.417 38.8182C109.781 38.1477 110.809 37.0625 111.503 35.5625C112.207 34.0511 112.559 32.0398 112.559 29.5284C112.559 27.017 112.207 25.017 111.503 23.5284C110.798 22.0284 109.758 20.9489 108.383 20.2898C107.02 19.6193 105.338 19.2841 103.338 19.2841H99.3151V39.8068ZM147.059 12.0909H155.48V34.608C155.48 37.2102 154.861 39.4773 153.622 41.4091C152.383 43.3295 150.656 44.8182 148.44 45.875C146.224 46.9205 143.65 47.4432 140.719 47.4432C137.753 47.4432 135.162 46.9205 132.946 45.875C130.73 44.8182 129.008 43.3295 127.781 41.4091C126.554 39.4773 125.94 37.2102 125.94 34.608V12.0909H134.378V33.875C134.378 35.0795 134.639 36.1534 135.162 37.0966C135.696 38.0398 136.44 38.7784 137.395 39.3125C138.349 39.8466 139.457 40.1136 140.719 40.1136C141.98 40.1136 143.082 39.8466 144.025 39.3125C144.98 38.7784 145.724 38.0398 146.258 37.0966C146.792 36.1534 147.059 35.0795 147.059 33.875V12.0909ZM159.626 18.9432V12.0909H189.132V18.9432H178.547V47H170.228V18.9432H159.626ZM193.253 47V12.0909H201.69V26.1023H215.446V12.0909H223.866V47H215.446V32.9716H201.69V47H193.253Z" fill="currentColor"/>
</svg>
